<svg xmlns="http://www.w3.org/2000/svg" width="88" height="41" fill="none" viewBox="0 0 88 41"><path fill="url(#paint0_linear)" d="M79.047 20.7863C79.4615 20.5784 79.9071 20.3913 80.3837 20.2251C80.8397 20.0588 81.3371 19.9236 81.8759 19.8197C81.3371 19.695 80.8397 19.5495 80.3837 19.3832C79.9071 19.2377 79.4615 19.0506 79.047 18.822L65.089 11.7442C64.6745 11.5363 64.3844 11.2973 64.2186 11.027C64.0528 10.7568 63.9699 10.4554 63.9699 10.1228L63.9699 6.13181L88 18.6661L88 20.9734L63.9699 33.4764L63.9699 29.5166C63.9699 29.1632 64.0528 28.8514 64.2186 28.5812C64.3844 28.3318 64.6745 28.1031 65.089 27.8953L79.047 20.7863Z"/><path fill="url(#paint1_linear)" d="M8.95301 18.822C8.53852 19.0299 8.09294 19.2169 7.61628 19.3832C7.16034 19.5495 6.66295 19.6846 6.12411 19.7886C6.66295 19.9133 7.16034 20.0588 7.61628 20.2251C8.09294 20.3706 8.53852 20.5577 8.95301 20.7863L22.911 27.8641C23.3255 28.072 23.6156 28.311 23.7814 28.5812C23.9472 28.8515 24.0301 29.1529 24.0301 29.4855V33.4765L0 20.9422L0 18.6349L24.0301 6.13184V10.0917C24.0301 10.445 23.9472 10.7568 23.7814 11.0271C23.6156 11.2765 23.3255 11.5051 22.911 11.713L8.95301 18.822Z"/><circle cx="44" cy="19.97" r="19.97" fill="url(#paint2_linear)"/><g filter="url(#filter0_d)"><circle cx="43.917" cy="20.053" r="12.761" fill="url(#paint3_linear)"/></g><circle cx="49.303" cy="12.844" r="2.072" fill="#fff"/><defs><filter id="filter0_d" width="36.31" height="36.31" x="25.762" y="4.055" color-interpolation-filters="sRGB" filterUnits="userSpaceOnUse"><feFlood flood-opacity="0" result="BackgroundImageFix"/><feColorMatrix in="SourceAlpha" type="matrix" values="0 0 0 0 0 0 0 0 0 0 0 0 0 0 0 0 0 0 127 0"/><feOffset dy="2.158"/><feGaussianBlur stdDeviation="2.697"/><feColorMatrix type="matrix" values="0 0 0 0 0 0 0 0 0 0 0 0 0 0 0 0 0 0 0.25 0"/><feBlend in2="BackgroundImageFix" mode="normal" result="effect1_dropShadow"/><feBlend in="SourceGraphic" in2="effect1_dropShadow" mode="normal" result="shape"/></filter><linearGradient id="paint0_linear" x1="57.59" x2="91.563" y1="40.768" y2="6.132" gradientUnits="userSpaceOnUse"><stop stop-color="#FFFBFB"/><stop offset="1" stop-color="#FFDFDF"/></linearGradient><linearGradient id="paint1_linear" x1="30.41" x2="-3.563" y1="-1.16" y2="33.477" gradientUnits="userSpaceOnUse"><stop stop-color="#FFFBFB"/><stop offset="1" stop-color="#FFDFDF"/></linearGradient><linearGradient id="paint2_linear" x1="30.576" x2="56.761" y1="2.734" y2="37.702" gradientUnits="userSpaceOnUse"><stop stop-color="#FFDFDF"/><stop offset="1" stop-color="#FFFBFB"/></linearGradient><linearGradient id="paint3_linear" x1="54.109" x2="33.476" y1="7.292" y2="32.813" gradientUnits="userSpaceOnUse"><stop stop-color="#FF7890"/><stop offset="1" stop-color="#FF280B"/></linearGradient></defs></svg>